<svg xmlns="http://www.w3.org/2000/svg" width="101" height="34" viewBox="0 0 101 34">
    <g fill="none" fill-rule="evenodd">
        <path fill="#4A90E2" d="M95 10h5v23h-5z"/>
        <path fill="#FF9F00" d="M94 0h7v7h-7z"/>
        <path fill="#4A90E2" d="M89.58 15.107a5.48 5.48 0 0 0-1.183-.368c-.42-.082-.946-.123-1.577-.123-.684 0-1.321.123-1.913.368a4.514 4.514 0 0 0-1.538 1.042c-.434.45-.776.98-1.025 1.593a5.309 5.309 0 0 0-.375 2.022V33H77V10.49h4.772v3.268h.079c.578-1.143 1.347-2.056 2.307-2.737.96-.68 2.215-1.021 3.766-1.021.552 0 1.104.04 1.656.123.552.081 1.026.19 1.42.326l-1.42 4.658zM61.5 33c-1.6 0-3.046-.238-4.334-.715-1.29-.476-2.388-1.162-3.297-2.06-.909-.896-1.614-2.01-2.116-3.34-.502-1.332-.753-2.838-.753-4.519v-2.732c0-1.71.251-3.222.753-4.54.502-1.316 1.207-2.423 2.116-3.32.91-.897 2.008-1.583 3.297-2.06C58.454 9.239 59.899 9 61.5 9c1.574 0 3.012.238 4.314.715 1.302.476 2.408 1.162 3.317 2.06.909.896 1.614 2.003 2.116 3.32.502 1.317.753 2.83.753 4.539v2.732c0 1.681-.251 3.187-.753 4.518s-1.207 2.445-2.116 3.342c-.91.897-2.015 1.583-3.317 2.06-1.302.476-2.74.714-4.314.714zm0-4.623a6.46 6.46 0 0 0 2.116-.337 4.35 4.35 0 0 0 1.69-1.05c.474-.477.847-1.107 1.118-1.892.272-.785.407-1.723.407-2.816v-2.564c0-2.214-.481-3.783-1.444-4.707-.964-.925-2.26-1.388-3.887-1.388-1.628 0-2.923.463-3.887 1.388-.963.924-1.444 2.493-1.444 4.707v2.564c0 1.093.135 2.031.407 2.816.27.785.644 1.415 1.119 1.891a4.35 4.35 0 0 0 1.689 1.051 6.46 6.46 0 0 0 2.116.337zM38.647 28.503c1.208 0 2.17-.161 2.886-.484.716-.322 1.075-.931 1.075-1.828v-.252c0-.393-.05-.722-.148-.988-.098-.266-.316-.497-.653-.694-.337-.196-.821-.378-1.453-.546a48.203 48.203 0 0 0-2.591-.588c-1.405-.28-2.605-.61-3.602-.988-.997-.378-1.812-.848-2.444-1.408a5.02 5.02 0 0 1-1.39-2.018c-.295-.784-.442-1.723-.442-2.816v-.42c0-.785.161-1.562.484-2.333.323-.77.843-1.464 1.559-2.08.716-.617 1.643-1.114 2.78-1.493C35.846 9.19 37.23 9 38.858 9c1.348 0 2.774.126 4.276.378 1.503.252 2.928.827 4.276 1.724l-2.275 3.824a7.778 7.778 0 0 0-2.633-1.134 13.134 13.134 0 0 0-2.97-.337c-1.657 0-2.794.19-3.412.568-.618.378-.927.875-.927 1.492v.252c0 .42.056.757.168 1.009.113.252.323.47.632.651.31.182.745.344 1.306.484.562.14 1.292.294 2.191.462 1.46.308 2.731.63 3.813.967 1.081.336 1.966.777 2.654 1.324a4.989 4.989 0 0 1 1.537 2.06c.337.826.506 1.856.506 3.089v.462a5.65 5.65 0 0 1-.61 2.564c-.408.812-1.005 1.527-1.791 2.143-.787.617-1.756 1.107-2.907 1.472-1.152.364-2.458.546-3.918.546-1.938 0-3.77-.252-5.498-.757-1.727-.504-3.153-1.204-4.276-2.101l2.36-4.035c1.038.7 2.148 1.275 3.327 1.723 1.18.448 2.5.673 3.96.673zM12.5 4c1.667 0 3.258.236 4.775.707a10.842 10.842 0 0 1 3.995 2.22c1.148 1.01 2.056 2.309 2.726 3.897.67 1.588 1.004 3.512 1.004 5.774v4.804c0 2.288-.335 4.233-1.004 5.835-.67 1.602-1.571 2.9-2.705 3.896-1.134.996-2.459 1.723-3.975 2.18A16.582 16.582 0 0 1 12.5 34c-1.694 0-3.3-.229-4.816-.686-1.516-.458-2.841-1.185-3.975-2.18-1.134-.997-2.035-2.295-2.705-3.897C.334 25.635 0 23.69 0 21.402v-4.804c0-2.262.335-4.186 1.004-5.774.67-1.588 1.578-2.887 2.726-3.897a10.842 10.842 0 0 1 3.995-2.22A16.002 16.002 0 0 1 12.5 4zm0 25.276c1.01 0 1.954-.128 2.828-.384a5.373 5.373 0 0 0 2.295-1.352c.656-.646 1.168-1.521 1.537-2.625.369-1.103.553-2.49.553-4.159v-3.512c0-1.67-.184-3.056-.553-4.16-.369-1.103-.881-1.978-1.537-2.624a5.373 5.373 0 0 0-2.295-1.352 10.033 10.033 0 0 0-2.828-.384c-.984 0-1.913.128-2.787.384a5.373 5.373 0 0 0-2.295 1.352c-.656.646-1.175 1.521-1.557 2.625-.383 1.103-.574 2.49-.574 4.159v3.512c0 1.67.191 3.056.574 4.16.382 1.103.901 1.978 1.557 2.624a5.373 5.373 0 0 0 2.295 1.352 9.881 9.881 0 0 0 2.787.384z"/>
    </g>
</svg>
